<svg id="Layer_1" enable-background="new 0 0 512 512" height="512" viewBox="0 0 512 512" width="512" xmlns="http://www.w3.org/2000/svg"><g clip-rule="evenodd" fill-rule="evenodd"><g><path d="m53.467 8.001h260.258c25.006 0 45.466 20.46 45.466 45.466v332.378c0 25.007-20.46 45.466-45.466 45.466h-260.258c-25.007 0-45.466-20.46-45.466-45.466v-332.378c0-25.006 20.459-45.466 45.466-45.466z" fill="#837683"/><path d="m287.674 8.001h26.051c25.007 0 45.466 20.46 45.466 45.467v332.377c0 25.007-20.459 45.466-45.466 45.466h-26.051c25.006 0 45.466-20.459 45.466-45.466v-332.377c0-25.007-20.46-45.467-45.466-45.467z" fill="#685e68"/><path d="m68.622 73.261h229.947c5.757 0 10.452 4.695 10.452 10.452v41.025c0 5.757-4.695 10.452-10.452 10.452h-229.947c-5.757 0-10.452-4.695-10.452-10.452v-41.025c0-5.757 4.695-10.452 10.452-10.452z" fill="#6cf5c2"/><path d="m295.996 73.261h2.573c5.757 0 10.452 4.695 10.452 10.452v41.025c0 5.757-4.695 10.452-10.452 10.452h-229.947c-5.757 0-10.452-4.695-10.452-10.452v-2.573h227.373c5.757 0 10.452-4.695 10.452-10.452v-38.452z" fill="#00e499"/><path d="m78.225 184.968h39.065c5.757 0 10.452 4.695 10.452 10.452v13.588c0 5.757-4.695 10.452-10.452 10.452h-39.065c-5.757 0-10.452-4.695-10.452-10.452v-13.588c0-5.757 4.695-10.452 10.452-10.452zm171.676 146.591h39.065c5.757 0 10.452 4.695 10.452 10.452v13.588c0 5.757-4.695 10.452-10.452 10.452h-39.065c-5.757 0-10.452-4.695-10.452-10.452v-13.588c0-5.757 4.695-10.452 10.452-10.452zm-85.838 0h39.065c5.757 0 10.452 4.695 10.452 10.452v13.588c0 5.757-4.695 10.452-10.452 10.452h-39.065c-5.757 0-10.452-4.695-10.452-10.452v-13.588c0-5.757 4.695-10.452 10.452-10.452zm-85.838 0h39.065c5.757 0 10.452 4.695 10.452 10.452v13.588c0 5.757-4.695 10.452-10.452 10.452h-39.065c-5.757 0-10.452-4.695-10.452-10.452v-13.588c0-5.757 4.695-10.452 10.452-10.452zm171.676-73.296h39.065c5.757 0 10.452 4.695 10.452 10.452v13.588c0 5.757-4.695 10.452-10.452 10.452h-39.065c-5.757 0-10.452-4.695-10.452-10.452v-13.588c0-5.756 4.695-10.452 10.452-10.452zm-85.838 0h39.065c5.757 0 10.452 4.695 10.452 10.452v13.588c0 5.757-4.695 10.452-10.452 10.452h-39.065c-5.757 0-10.452-4.695-10.452-10.452v-13.588c0-5.756 4.695-10.452 10.452-10.452zm-85.838 0h39.065c5.757 0 10.452 4.695 10.452 10.452v13.588c0 5.757-4.695 10.452-10.452 10.452h-39.065c-5.757 0-10.452-4.695-10.452-10.452v-13.588c0-5.756 4.695-10.452 10.452-10.452zm171.676-73.295h39.065c5.757 0 10.452 4.695 10.452 10.452v13.588c0 5.757-4.695 10.452-10.452 10.452h-39.065c-5.757 0-10.452-4.695-10.452-10.452v-13.588c0-5.757 4.695-10.452 10.452-10.452zm-85.838 0h39.065c5.757 0 10.452 4.695 10.452 10.452v13.588c0 5.757-4.695 10.452-10.452 10.452h-39.065c-5.757 0-10.452-4.695-10.452-10.452v-13.588c0-5.757 4.695-10.452 10.452-10.452z" fill="#eceff1"/><path d="m119.036 185.115c4.931.836 8.706 5.143 8.706 10.305v13.588c0 5.757-4.695 10.452-10.452 10.452h-39.065c-4.573 0-8.476-2.963-9.887-7.068.568.096 1.151.147 1.746.147h39.065c5.757 0 10.452-4.695 10.452-10.452v-13.587c0-1.184-.199-2.322-.565-3.385zm171.677 146.592c4.931.835 8.706 5.143 8.706 10.305v13.588c0 5.757-4.695 10.452-10.452 10.452h-39.065c-4.573 0-8.476-2.963-9.888-7.067.568.096 1.152.147 1.747.147h39.065c5.757 0 10.452-4.695 10.452-10.452v-13.588c-.001-1.185-.2-2.323-.565-3.385zm-85.838 0c4.93.835 8.705 5.143 8.705 10.305v13.588c0 5.757-4.695 10.452-10.452 10.452h-39.065c-4.573 0-8.475-2.963-9.887-7.067.568.096 1.151.147 1.746.147h39.065c5.757 0 10.452-4.695 10.452-10.452v-13.588c0-1.185-.199-2.323-.564-3.385zm-85.839 0c4.931.835 8.706 5.143 8.706 10.305v13.588c0 5.757-4.695 10.452-10.452 10.452h-39.065c-4.573 0-8.476-2.963-9.887-7.067.568.096 1.151.147 1.746.147h39.065c5.757 0 10.452-4.695 10.452-10.452v-13.588c0-1.185-.199-2.323-.565-3.385zm171.677-73.296c4.931.835 8.706 5.143 8.706 10.304v13.588c0 5.757-4.695 10.452-10.452 10.452h-39.065c-4.573 0-8.476-2.963-9.888-7.067.568.096 1.152.147 1.747.147h39.065c5.757 0 10.452-4.695 10.452-10.452v-13.589c-.001-1.182-.2-2.321-.565-3.383zm-85.838 0c4.93.835 8.705 5.143 8.705 10.304v13.588c0 5.757-4.695 10.452-10.452 10.452h-39.065c-4.573 0-8.475-2.962-9.887-7.067.568.096 1.151.147 1.746.147h39.065c5.757 0 10.452-4.695 10.452-10.452v-13.589c0-1.182-.199-2.321-.564-3.383zm-85.839 0c4.931.835 8.706 5.143 8.706 10.304v13.588c0 5.757-4.695 10.452-10.452 10.452h-39.065c-4.573 0-8.476-2.963-9.887-7.067.568.096 1.151.147 1.746.147h39.065c5.757 0 10.452-4.695 10.452-10.452v-13.589c0-1.182-.199-2.321-.565-3.383zm171.677-73.296c4.931.835 8.706 5.143 8.706 10.305v13.588c0 5.757-4.695 10.452-10.452 10.452h-39.065c-4.573 0-8.476-2.963-9.888-7.068.568.096 1.152.147 1.747.147h39.065c5.757 0 10.452-4.695 10.452-10.452v-13.587c-.001-1.184-.2-2.322-.565-3.385zm-85.838 0c4.93.835 8.705 5.143 8.705 10.305v13.588c0 5.757-4.695 10.452-10.452 10.452h-39.065c-4.573 0-8.475-2.963-9.887-7.068.568.096 1.151.147 1.746.147h39.065c5.757 0 10.452-4.695 10.452-10.452v-13.587c0-1.184-.199-2.322-.564-3.385z" fill="#d1d1d6"/></g><g><path d="m395.205 181.069 13.684 40.868c35.667 38.249 61.653 70.653 77.956 99.277 52.112 91.501-22.022 184.436-121.305 182.763-99.283 1.673-173.417-91.262-121.305-182.763 16.303-28.624 42.289-61.029 77.956-99.277l13.73-40.823-33.421-33.42c-8.158-8.158-8.158-21.507 0-29.664 6.938-6.939 17.922-8.111 26.178-2.812 3.067 1.968 6.589 2.282 9.954.889 3.365-1.394 5.633-4.105 6.41-7.666 2.056-9.416 10.486-16.523 20.497-16.525 9.829 0 18.403 6.929 20.498 16.525.777 3.561 3.045 6.272 6.41 7.666 3.367 1.395 6.888 1.079 9.953-.889 8.111-5.206 19.1-4.267 26.178 2.81v.002c8.158 8.158 8.158 21.507 0 29.664z" fill="#ffc338"/><path d="m395.205 181.069 13.684 40.868c35.667 38.249 61.653 70.653 77.956 99.277 52.112 91.501-22.022 184.436-121.305 182.763-1.944.033-3.874.016-5.798-.023 96.336-1.955 166.599-93.031 115.507-182.74-16.303-28.624-42.289-61.029-77.956-99.277l-13.684-40.868 33.374-33.374c8.157-8.158 8.157-21.507 0-29.664v-.001c-2.597-2.597-5.721-4.367-9.036-5.31 7.096-2.021 15.072-.251 20.633 5.31v.001c8.158 8.158 8.158 21.507 0 29.664zm-83.649-68.346c5.663-1.609 11.932-.836 17.122 2.495l.041.026c-.525.327-1.087.616-1.684.863-3.366 1.393-6.888 1.079-9.954-.889-1.741-1.118-3.605-1.947-5.525-2.495zm48.181-19.983c7.253 2.104 13.035 8.056 14.705 15.702.777 3.561 3.046 6.272 6.41 7.666 3.352 1.388 6.856 1.081 9.912-.863-2.438-1.519-4.087-3.874-4.726-6.803-2.095-9.596-10.669-16.525-20.498-16.525-2.011 0-3.959.288-5.803.823z" fill="#f5b829"/><path d="m320.008 221.937h91.063c11.227 0 20.412-9.186 20.412-20.411 0-11.227-9.185-20.412-20.412-20.412h-91.063c-11.228 0-20.412 9.185-20.412 20.411 0 11.227 9.185 20.412 20.412 20.412z" fill="#685e68"/><path d="m399.475 221.937h11.596c11.227 0 20.412-9.186 20.412-20.411 0-11.228-9.185-20.412-20.412-20.412h-11.596c11.228 0 20.412 9.185 20.412 20.412 0 11.225-9.184 20.411-20.412 20.411z" fill="#544854"/><path d="m364.492 407.987c.218-.015.438-.024.66-.024.264 0 .526.011.784.033l.442-.008c1.155-.027 2.519-.135 4.081-.324 5.734-.696 11.468-2.523 15.551-5.621 3.262-2.475 5.433-5.934 5.326-10.474-.008-.353-.058-.906-.15-1.667-.693-5.71-3.937-9.52-8.256-12.128-5.399-3.26-12.506-4.987-19.162-6.08-8.288-1.361-17.275-3.832-24.593-8.609-8.394-5.48-14.424-13.585-15.011-25.668-.584-12.026 4.597-21.671 12.767-28.314 5.316-4.322 11.917-7.289 18.945-8.706v-7.327c0-5.123 4.153-9.277 9.277-9.277 5.123 0 9.276 4.154 9.276 9.277v7.188c.906.172 1.806.371 2.7.597 12.185 3.088 23.269 11.1 29.091 24.966 1.981 4.723-.241 10.158-4.964 12.139s-10.158-.242-12.139-4.964c-3.306-7.875-9.585-12.42-16.481-14.168-2.243-.568-4.539-.861-6.82-.894-.219.016-.44.024-.664.024-.185 0-.369-.006-.552-.017-1.725.045-3.432.238-5.091.572-4.124.831-7.928 2.515-10.91 4.939-3.807 3.095-6.223 7.56-5.954 13.094.248 5.114 2.903 8.612 6.604 11.028 4.776 3.118 11.299 4.839 17.49 5.855 8.585 1.409 17.949 3.757 25.757 8.472 8.889 5.367 15.594 13.433 17.098 25.825.118.973.192 2.112.223 3.407.269 11.309-4.89 19.735-12.646 25.621-6.454 4.897-14.673 7.841-22.742 9.071v7.024c0 5.124-4.153 9.277-9.276 9.277s-9.277-4.153-9.277-9.277v-7.201c-6.639-1.171-12.979-3.574-18.438-7.21-7.992-5.323-14.115-13.175-16.704-23.56-1.221-4.963 1.813-9.977 6.776-11.197 4.963-1.221 9.977 1.813 11.197 6.776 1.371 5.498 4.653 9.683 8.949 12.544 4.747 3.165 10.701 4.827 16.836 4.986z" fill="#ffe177"/></g></g></svg>